<svg xmlns="http://www.w3.org/2000/svg" viewBox="0 0 23.41 26.3"><defs><style>.cls-1{fill:#fff;}</style></defs><title>Asset 8</title><g id="Layer_2" data-name="Layer 2"><g id="Layer_1-2" data-name="Layer 1"><path class="cls-1" d="M10.37,15.21a4.83,4.83,0,1,1,4.82-4.82,4.83,4.83,0,0,1-4.82,4.82m0-7.65a2.83,2.83,0,1,0,2.82,2.83,2.83,2.83,0,0,0-2.82-2.83"/><path class="cls-1" d="M23.15,24.47l-2.66-3a4.56,4.56,0,1,0-3.7,1.9A4.5,4.5,0,0,0,19,22.83l2.68,3a1,1,0,0,0,.75.33,1,1,0,0,0,.66-.25,1,1,0,0,0,.08-1.42m-8.93-5.63a2.58,2.58,0,1,1,2.57,2.57,2.58,2.58,0,0,1-2.57-2.57"/><path class="cls-1" d="M11.38,22.46c-.34.34-.67.68-1,1C5.14,18.35,2,14.79,2,10.37a8.37,8.37,0,1,1,16.73,0,8.47,8.47,0,0,1-.3,2.17,6.42,6.42,0,0,1,1.86.8,10.22,10.22,0,0,0,.44-3A10.37,10.37,0,1,0,0,10.37c0,5.79,4.48,10.17,9.67,15.24l.71.69.69-.7,1.67-1.67a6.33,6.33,0,0,1-1.36-1.47"/></g></g></svg>
