<svg xmlns="http://www.w3.org/2000/svg" xmlns:xlink="http://www.w3.org/1999/xlink" viewBox="0 0 27.11 27.11"><defs><style>.cls-1{fill:none;}.cls-2{opacity:0.89;isolation:isolate;}.cls-3{clip-path:url(#clip-path);}.cls-4{fill:#fff;}</style><clipPath id="clip-path" transform="translate(0)"><rect class="cls-1" width="22.61" height="22.61"/></clipPath></defs><title>Asset 3</title><g id="Layer_2" data-name="Layer 2"><g id="Layer_1-2" data-name="Layer 1"><g class="cls-2"><g class="cls-3"><path class="cls-4" d="M13.32,20.39a9.52,9.52,0,0,1-2,.22,9.31,9.31,0,1,1,9.3-9.3,9.52,9.52,0,0,1-.22,2L22,14.93a11.13,11.13,0,0,0,.61-3.62,11.31,11.31,0,1,0-11.3,11.3A11.13,11.13,0,0,0,14.93,22Z" transform="translate(0)"/></g></g><path class="cls-4" d="M26.23,22l-6.6-6.61a9.31,9.31,0,0,1-4.25,4.25L22,26.23A3,3,0,0,0,26.23,22" transform="translate(0)"/><path class="cls-4" d="M15.09,9.81H12.81V7.52a1.5,1.5,0,1,0-3,0V9.81H7.52a1.5,1.5,0,1,0,0,3H9.81v2.28a1.5,1.5,0,0,0,3,0V12.81h2.28a1.5,1.5,0,0,0,0-3" transform="translate(0)"/></g></g></svg>