<svg xmlns="http://www.w3.org/2000/svg" viewBox="0 0 33.1 33.84"><title>Asset 7</title><g id="Layer_2" data-name="Layer 2"><g id="Layer_1-2" data-name="Layer 1"><path d="M2.41,17.78l0-.38L.49,15.63A1.57,1.57,0,0,1,0,14.19l1.05-5.4A1.56,1.56,0,0,1,2.54,7.54l2.19-.11a1.56,1.56,0,0,0,1.08-.51h0a1.51,1.51,0,0,0,.4-1.11L6.1,3.49A1.55,1.55,0,0,1,7.2,1.93L12.29.36a1.57,1.57,0,0,1,1.52.35l1.87,1.75.38,0L17.75.53A1.56,1.56,0,0,1,19.23,0l5.21,1.08a1.54,1.54,0,0,1,1.24,1.45l.11,2.32A1.55,1.55,0,0,0,26.3,6h0a1.56,1.56,0,0,0,1.12.41l2.2-.11a1.56,1.56,0,0,1,1.56,1.12l1.56,5.27a1.56,1.56,0,0,1-.32,1.48L30.7,16.06v.37l1.9,1.76a1.55,1.55,0,0,1,.46,1.44L32,25a1.55,1.55,0,0,1-1.45,1.26l-2.2.1a1.6,1.6,0,0,0-1.08.51h0a1.59,1.59,0,0,0-.4,1.12L27,30.35a1.55,1.55,0,0,1-1.1,1.56l-5.09,1.57a1.57,1.57,0,0,1-1.52-.35l-1.86-1.75-.38,0-1.7,1.91a1.55,1.55,0,0,1-1.48.5L8.66,32.73a1.54,1.54,0,0,1-1.24-1.45L7.31,29a1.51,1.51,0,0,0-.51-1.07h0a1.54,1.54,0,0,0-1.12-.41l-2.19.1a1.54,1.54,0,0,1-1.57-1.11L.36,21.18a1.55,1.55,0,0,1,.33-1.47Zm.47-6.84L2.41,13.4a1.53,1.53,0,0,0,.46,1.43l1.19,1.11A1.56,1.56,0,0,1,4.56,17l0,1a1.58,1.58,0,0,1-.39,1.11L3.13,20.29a1.56,1.56,0,0,0-.33,1.48l.71,2.39a1.54,1.54,0,0,0,1.57,1.11l1.39-.06a1.56,1.56,0,0,1,1.14.42l1.33,1.24a1.55,1.55,0,0,1,.49,1.06l.07,1.5a1.58,1.58,0,0,0,1.24,1.45l2.36.48a1.56,1.56,0,0,0,1.47-.48l1-1.17a1.53,1.53,0,0,1,1.08-.52l.87,0a1.54,1.54,0,0,1,1.12.41l1.15,1.07a1.59,1.59,0,0,0,1.52.34l2.3-.71a1.53,1.53,0,0,0,1.09-1.56l-.07-1.49a1.54,1.54,0,0,1,.39-1.1l1.21-1.37a1.57,1.57,0,0,1,1.09-.52l1.4-.07a1.55,1.55,0,0,0,1.45-1.26l.48-2.45A1.56,1.56,0,0,0,30.23,19L29,17.9a1.55,1.55,0,0,1-.49-1.07l-.05-1a1.56,1.56,0,0,1,.39-1.11L30,13.55a1.56,1.56,0,0,0,.33-1.48l-.71-2.39A1.54,1.54,0,0,0,28,8.57l-1.4.06a1.56,1.56,0,0,1-1.14-.42L24.16,7a1.6,1.6,0,0,1-.49-1.07L23.6,4.4A1.55,1.55,0,0,0,22.36,3L20,2.47A1.54,1.54,0,0,0,18.54,3L17.49,4.13a1.57,1.57,0,0,1-1.09.52l-.86,0a1.57,1.57,0,0,1-1.13-.41L13.26,3.21a1.58,1.58,0,0,0-1.51-.35l-2.3.7a1.56,1.56,0,0,0-1.1,1.56l.07,1.51A1.54,1.54,0,0,1,8,7.73L6.83,9.1a1.59,1.59,0,0,1-1.1.52l-1.39.07A1.56,1.56,0,0,0,2.88,10.94ZM17,25.83a8.35,8.35,0,0,1-3.41-.55,8.83,8.83,0,0,1-2.87-1.78,9.1,9.1,0,0,1-2-2.75,9.06,9.06,0,0,1-.33-6.91,9.14,9.14,0,0,1,1.74-2.92,8.87,8.87,0,0,1,2.68-2A8.31,8.31,0,0,1,16.12,8a8.41,8.41,0,0,1,3.43.54,8.7,8.7,0,0,1,2.86,1.77,9,9,0,0,1,2.84,6.19,8.91,8.91,0,0,1-.51,3.5A9.11,9.11,0,0,1,23,22.93a9,9,0,0,1-2.68,2,8.52,8.52,0,0,1-3.36.86m-.79-16.7a7.3,7.3,0,0,0-2.94.75,7.82,7.82,0,0,0-3.86,4.34,7.85,7.85,0,0,0-.45,3.06,7.62,7.62,0,0,0,.74,3,7.77,7.77,0,0,0,4.25,4A7.52,7.52,0,0,0,19.85,24a7.76,7.76,0,0,0,2.34-1.79,8,8,0,0,0,1.53-2.56,7.86,7.86,0,0,0-2-8.46A7.61,7.61,0,0,0,19.17,9.6a7.34,7.34,0,0,0-3-.47m.52,11.14a3.05,3.05,0,0,1-1.28-.21,3.22,3.22,0,0,1-1.07-.67,3.52,3.52,0,0,1-.74-1,3.23,3.23,0,0,1-.32-1.29,3.36,3.36,0,0,1,.19-1.31,3.51,3.51,0,0,1,.65-1.09,3.15,3.15,0,0,1,1-.77,3.09,3.09,0,0,1,1.26-.33,3.05,3.05,0,0,1,1.28.21,3.22,3.22,0,0,1,1.07.67A3.37,3.37,0,0,1,19,19.17a3.31,3.31,0,0,1-1,.77,3.09,3.09,0,0,1-1.26.33"/></g></g></svg>
